<svg width="254" height="47" viewBox="0 0 254 47" fill="none" xmlns="http://www.w3.org/2000/svg">
<path fill-rule="evenodd" clip-rule="evenodd" d="M20.3714 22.8182H16.5599L12.6145 7.64729L8.56667 22.8182H4.75543L0 1.00342H4.35086L7.25144 16.4616L11.5352 1.00342H15.1096L18.9543 16.3651L21.8217 1.00342H25.8344L20.3714 22.8182Z" fill="white"/>
<path fill-rule="evenodd" clip-rule="evenodd" d="M37.6187 15.695H29.0846C29.1855 18.9527 30.6703 20.1667 33.1998 20.1667C34.7855 20.1667 37.1471 18.826 37.1471 18.826V21.8606C37.1471 21.8606 34.8864 23.0419 32.088 23.0419C28.1081 23.0419 25.0371 20.678 25.0371 15.4078C25.0371 8.76304 29.456 7.4873 32.0535 7.4873C34.6163 7.4873 37.8202 8.60456 37.8202 13.0439C37.8199 14.641 37.6187 15.695 37.6187 15.695ZM34.1437 13.0439C34.1437 11.4151 33.469 10.0732 31.9191 10.0732C30.9063 10.0732 29.1855 10.2978 29.1855 13.4279H34.1437V13.0439Z" fill="white"/>
<path fill-rule="evenodd" clip-rule="evenodd" d="M42.3521 6.14496C41.1375 6.14496 40.0914 5.18735 40.0914 4.07009C40.0914 2.95136 41.1375 1.99316 42.3521 1.99316C43.5664 1.99316 44.6125 2.95165 44.6125 4.07009C44.6125 5.18735 43.5664 6.14496 42.3521 6.14496ZM44.2399 22.8186H40.3622V7.87142H44.2399V22.8186ZM40.3622 22.8186H44.2399H40.3622Z" fill="white"/>
<path fill-rule="evenodd" clip-rule="evenodd" d="M52.0257 23.0407C48.8888 23.0407 47.305 22.0502 47.305 22.0502V18.8249C47.305 18.8249 49.6647 20.1656 51.587 20.1656C53.1397 20.1656 54.3193 19.6863 54.3193 18.4417C54.3193 17.0361 52.4302 16.7485 50.7766 15.95C48.922 15.0562 47.0675 14.1297 47.0675 11.67C47.0675 9.46574 48.5523 7.48584 53.2732 7.48584C55.1954 7.48584 57.0848 7.90099 57.0848 7.90099V11.2231C57.0848 11.2231 54.8933 10.3919 53.5089 10.3919C52.2284 10.3919 51.0486 10.5201 51.0486 11.7976C51.0486 12.9463 52.5308 13.362 53.8128 13.873C55.8372 14.671 58.2643 15.4695 58.2643 18.4412C58.2646 21.5718 55.6345 23.0407 52.0257 23.0407Z" fill="white"/>
<path fill-rule="evenodd" clip-rule="evenodd" d="M64.9966 23.0407C61.8598 23.0407 60.2741 22.0502 60.2741 22.0502V18.8249C60.2741 18.8249 62.6354 20.1656 64.5576 20.1656C66.1104 20.1656 67.2899 19.6863 67.2899 18.4417C67.2899 17.0361 65.4006 16.7485 63.7488 15.95C61.8939 15.0562 60.0378 14.1297 60.0378 11.67C60.0378 9.46574 61.5229 7.48584 66.2451 7.48584C68.1677 7.48584 70.0567 7.90099 70.0567 7.90099V11.2231C70.0567 11.2231 67.8624 10.3919 66.4811 10.3919C65.1988 10.3919 64.0177 10.5201 64.0177 11.7976C64.0177 12.9463 65.5027 13.362 66.7847 13.873C68.8076 14.671 71.2362 15.4695 71.2362 18.4412C71.2368 21.5718 68.6051 23.0407 64.9966 23.0407Z" fill="white"/>
<path fill-rule="evenodd" clip-rule="evenodd" d="M84.8615 28.0039C83.7397 28.8063 82.6232 29.2438 80.5699 29.3787C80.2601 29.3987 80.1418 29.4073 79.9629 29.4073H79.9493C79.8449 29.4073 79.7176 29.404 79.5211 29.3996C77.4023 29.347 75.7133 28.3906 75.1948 27.9148V25.0941C75.5409 25.5366 77.6082 26.6306 79.5167 26.6306C79.558 26.6306 80.0191 26.6291 80.0604 26.6291C81.2844 26.6291 82.9309 25.8385 82.9309 23.0407V22.0804C82.0295 22.7675 81.1092 23.0407 79.2873 23.0407C75.4096 23.0407 73.3191 19.88 73.3191 15.6315C73.3191 9.30748 76.6919 7.45459 79.9291 7.45459C81.3449 7.45459 82.5456 7.69215 83.6553 8.28548L83.8748 7.86945H86.8098V22.7857C86.8101 25.2781 86.1863 27.0551 84.8615 28.0039ZM82.9309 11.2871C82.6617 10.8073 81.9538 10.0731 80.5032 10.0731C78.2773 10.0731 77.2989 11.7981 77.2989 15.3113C77.2989 17.7075 77.905 20.326 80.1654 20.326C81.8848 20.326 82.594 19.5589 82.9309 19.209V11.2871Z" fill="white"/>
<path fill-rule="evenodd" clip-rule="evenodd" d="M100.525 22.9441C99.3436 22.9441 98.6301 22.3196 98.3665 21.487C97.6421 22.4857 95.9034 23.2313 93.9812 23.2313C91.6873 23.2313 89.4958 21.9862 89.4958 18.5365C89.4958 14.7031 92.2598 13.5224 96.6787 13.5224H97.9955V12.6921C97.9955 10.5846 96.5449 10.3279 95.0601 10.3279C93.0093 10.3279 92.2505 10.758 91.1728 11.434V8.69992C92.4505 7.94754 93.4592 7.5565 95.546 7.49505C95.7988 7.4874 96.7979 7.40126 97.9501 7.5565C101.549 8.0425 101.873 10.903 101.873 14.0016V18.6329C101.873 19.911 102.009 20.3894 103.325 20.3894V22.5936C103.324 22.5936 102.447 22.9441 100.525 22.9441ZM97.9951 15.8863H96.5445C94.9592 15.8863 93.4409 16.4287 93.4409 18.3454C93.4409 19.4959 94.0479 20.3897 95.3634 20.3897C97.4887 20.3897 97.9951 18.8564 97.9951 18.8564V15.8863Z" fill="white"/>
<path fill-rule="evenodd" clip-rule="evenodd" d="M114.573 22.8174L114.423 21.8504C112.837 22.9638 111.268 23.0723 110.021 23.0723C108.233 23.0723 105.534 22.3373 105.534 18.378V7.86963H109.413V17.9076C109.413 19.6341 110.021 20.3997 111.471 20.3997C112.651 20.3997 113.697 19.57 114.034 18.8352V7.86963H117.913V22.8174H114.573Z" fill="white"/>
<path fill-rule="evenodd" clip-rule="evenodd" d="M127.196 3.39804C126.353 3.39804 125.915 4.00489 125.915 5.60316V7.86972H129.118V10.7764H125.915V22.8175H122.036V10.7764H120.181V7.86972H122.036V6.78422C122.036 4.16542 122.104 0.108887 126.724 0.108887C127.939 0.108887 129.288 0.459353 129.288 0.459353V3.65266C129.288 3.65295 128.073 3.39804 127.196 3.39804Z" fill="white"/>
<path fill-rule="evenodd" clip-rule="evenodd" d="M135.908 3.39804C135.065 3.39804 134.626 4.00489 134.626 5.60316V7.86972H137.83V10.7764H134.626V22.8175H130.747V10.7764H128.892V7.86972H130.747V6.78422C130.747 4.16542 130.814 0.108887 135.436 0.108887C136.649 0.108887 138 0.459353 138 0.459353V3.65266C138 3.65295 136.784 3.39804 135.908 3.39804Z" fill="white"/>
<path d="M5.08594 43.1641C7.2666 43.1641 8.72949 42.0771 9.18066 40.1289H7.93652C7.58105 41.332 6.54199 42.0293 5.09277 42.0293C3.14453 42.0293 1.90723 40.4844 1.90723 38.0645C1.90723 35.665 3.1582 34.1064 5.08594 34.1064C6.49414 34.1064 7.62207 34.9541 7.93652 36.2461H9.18066C8.86621 34.2773 7.23242 32.9717 5.08594 32.9717C2.38574 32.9717 0.642578 34.9678 0.642578 38.0645C0.642578 41.1885 2.36523 43.1641 5.08594 43.1641ZM12.9336 42.1113C12.0791 42.1113 11.5117 41.667 11.5117 40.9902C11.5117 40.3203 12.0586 39.8965 13.0156 39.835L14.916 39.7188V40.2998C14.916 41.3252 14.0547 42.1113 12.9336 42.1113ZM12.667 43.123C13.624 43.123 14.5264 42.5898 14.9502 41.7764H14.9775V43H16.1055V38.085C16.1055 36.6699 15.0527 35.7676 13.3848 35.7676C11.7031 35.7676 10.6504 36.7109 10.5684 37.9414H11.7168C11.8672 37.2441 12.4414 36.8135 13.3574 36.8135C14.3418 36.8135 14.916 37.333 14.916 38.2012V38.7959L12.8789 38.9121C11.2383 39.0078 10.3018 39.7734 10.3018 40.9902C10.3018 42.2686 11.252 43.123 12.667 43.123ZM18.9219 43V37.9551H18.9697L21.2666 42.7949H22.1758L24.4727 37.9551H24.5205V43H25.7031V35.8906H24.3154L21.7725 41.4277H21.7178L19.1885 35.8906H17.7461V43H18.9219ZM33.4551 43H34.6309V35.8906H33.4551V43ZM29.873 39.1377C30.7891 39.1377 31.3906 39.7051 31.3906 40.5801C31.3906 41.4482 30.7959 42.0225 29.873 42.0225H28.5605V39.1377H29.873ZM27.3711 43H29.8936C31.5205 43 32.5664 42.0635 32.5664 40.5801C32.5664 39.0967 31.5205 38.1602 29.8936 38.1602H28.5605V35.8906H27.3711V43ZM39.1562 36.7998C40.2773 36.7998 41.0225 37.6475 41.0498 38.8369H37.1875C37.2627 37.6543 38.042 36.7998 39.1562 36.7998ZM41.0225 40.9629C40.8242 41.6328 40.1611 42.0908 39.2588 42.0908C37.9805 42.0908 37.1807 41.1953 37.1807 39.835V39.7666H42.2803V39.3154C42.2803 37.1621 41.0977 35.7676 39.1768 35.7676C37.2148 35.7676 35.957 37.2646 35.957 39.4727C35.957 41.708 37.1943 43.123 39.2314 43.123C40.7832 43.123 41.9863 42.207 42.1914 40.9629H41.0225ZM51.1533 43H52.3428V35.8906H51.1533V38.8232H47.6738V35.8906H46.4844V43H47.6738V39.8008H51.1533V43ZM55.1934 43L58.7344 37.7158H58.7891V43H59.9785V35.8906H58.8027L55.2617 41.1748H55.207V35.8906H54.0176V43H55.1934ZM64.0186 43.123C65.6865 43.123 66.7939 42.2344 66.7939 40.9219C66.7939 40.1221 66.3086 39.5342 65.3721 39.3291V39.2744C66.1104 39.1035 66.5957 38.4473 66.5957 37.709C66.5957 36.5537 65.7139 35.7676 64.0938 35.7676C62.5898 35.7676 61.5645 36.5127 61.4141 37.6885H62.5693C62.665 37.1211 63.2529 36.7588 64.0938 36.7588C65.0098 36.7588 65.4336 37.1963 65.4336 37.8047C65.4336 38.5225 64.9551 38.8779 64.0186 38.8779H62.9521V39.8486H64.0186C65.0918 39.8486 65.625 40.1973 65.625 40.9766C65.625 41.6533 65.0508 42.1387 64.0186 42.1387C63.1367 42.1387 62.5488 41.7764 62.4121 41.1543H61.209C61.332 42.3574 62.46 43.123 64.0186 43.123ZM70.5811 39.2539L73.8896 35.8906H72.4199L69.3984 39.0352H69.3438V35.8906H68.1543V43H69.3438V39.582H69.3984L72.4541 43H73.9854L70.5811 39.2539ZM76.1523 43L79.6934 37.7158H79.748V43H80.9375V35.8906H79.7617L76.2207 41.1748H76.166V35.8906H74.9766V43H76.1523ZM85.4629 36.7998C86.584 36.7998 87.3291 37.6475 87.3564 38.8369H83.4941C83.5693 37.6543 84.3486 36.7998 85.4629 36.7998ZM87.3291 40.9629C87.1309 41.6328 86.4678 42.0908 85.5654 42.0908C84.2871 42.0908 83.4873 41.1953 83.4873 39.835V39.7666H88.5869V39.3154C88.5869 37.1621 87.4043 35.7676 85.4834 35.7676C83.5215 35.7676 82.2637 37.2646 82.2637 39.4727C82.2637 41.708 83.501 43.123 85.5381 43.123C87.0898 43.123 88.293 42.207 88.498 40.9629H87.3291ZM99.6543 44.8799V42.0225H98.5195V35.8906H97.3301V42.0225H93.9805V35.8906H92.791V43H98.5469V44.8799H99.6543ZM103.578 36.7998C104.699 36.7998 105.444 37.6475 105.472 38.8369H101.609C101.685 37.6543 102.464 36.7998 103.578 36.7998ZM105.444 40.9629C105.246 41.6328 104.583 42.0908 103.681 42.0908C102.402 42.0908 101.603 41.1953 101.603 39.835V39.7666H106.702V39.3154C106.702 37.1621 105.52 35.7676 103.599 35.7676C101.637 35.7676 100.379 37.2646 100.379 39.4727C100.379 41.708 101.616 43.123 103.653 43.123C105.205 43.123 106.408 42.207 106.613 40.9629H105.444ZM112.704 43H113.894V35.8906H112.704V38.8232H109.225V35.8906H108.035V43H109.225V39.8008H112.704V43ZM121.652 43H122.828V35.8906H121.652V43ZM118.07 39.1377C118.986 39.1377 119.588 39.7051 119.588 40.5801C119.588 41.4482 118.993 42.0225 118.07 42.0225H116.758V39.1377H118.07ZM115.568 43H118.091C119.718 43 120.764 42.0635 120.764 40.5801C120.764 39.0967 119.718 38.1602 118.091 38.1602H116.758V35.8906H115.568V43ZM132.036 43H133.226V35.8906H132.036V38.8232H128.557V35.8906H127.367V43H128.557V39.8008H132.036V43ZM137.252 42.1113C136.397 42.1113 135.83 41.667 135.83 40.9902C135.83 40.3203 136.377 39.8965 137.334 39.835L139.234 39.7188V40.2998C139.234 41.3252 138.373 42.1113 137.252 42.1113ZM136.985 43.123C137.942 43.123 138.845 42.5898 139.269 41.7764H139.296V43H140.424V38.085C140.424 36.6699 139.371 35.7676 137.703 35.7676C136.021 35.7676 134.969 36.7109 134.887 37.9414H136.035C136.186 37.2441 136.76 36.8135 137.676 36.8135C138.66 36.8135 139.234 37.333 139.234 38.2012V38.7959L137.197 38.9121C135.557 39.0078 134.62 39.7734 134.62 40.9902C134.62 42.2686 135.57 43.123 136.985 43.123ZM147.984 43.123C150.042 43.123 151.307 41.749 151.307 39.5137C151.307 37.3945 150.083 36.041 148.162 36.041C147.068 36.041 146.18 36.4785 145.715 37.3193H145.66C145.947 35.1934 146.535 34.3252 148.511 34.25L149.037 34.2295C149.857 34.1953 150.609 34.0176 150.835 33.8125V32.7734C150.432 32.9854 149.666 33.1221 148.982 33.1562L148.456 33.1768C145.694 33.2793 144.655 34.9131 144.655 38.8369C144.655 41.6602 145.804 43.123 147.984 43.123ZM147.984 42.0703C146.645 42.0703 145.872 41.1475 145.872 39.5137C145.872 37.9619 146.645 37.0801 147.984 37.0801C149.317 37.0801 150.09 37.9619 150.09 39.5137C150.09 41.1475 149.317 42.0703 147.984 42.0703ZM158.717 43H159.893V35.8906H158.717V43ZM155.135 39.1377C156.051 39.1377 156.652 39.7051 156.652 40.5801C156.652 41.4482 156.058 42.0225 155.135 42.0225H153.822V39.1377H155.135ZM152.633 43H155.155C156.782 43 157.828 42.0635 157.828 40.5801C157.828 39.0967 156.782 38.1602 155.155 38.1602H153.822V35.8906H152.633V43ZM166.763 35.8906H160.993V36.8682H163.283V43H164.473V36.8682H166.763V35.8906ZM170.68 43.123C172.642 43.123 173.968 41.708 173.968 39.4453C173.968 37.1758 172.642 35.7676 170.68 35.7676C168.711 35.7676 167.385 37.1758 167.385 39.4453C167.385 41.708 168.711 43.123 170.68 43.123ZM170.68 42.0771C169.422 42.0771 168.595 41.1201 168.595 39.4453C168.595 37.7705 169.422 36.8135 170.68 36.8135C171.938 36.8135 172.758 37.7705 172.758 39.4453C172.758 41.1201 171.938 42.0771 170.68 42.0771ZM178.363 43C179.874 43 180.804 42.2139 180.804 40.9561C180.804 40.0879 180.216 39.4521 179.32 39.3291V39.2744C179.977 39.1377 180.489 38.4609 180.489 37.7295C180.489 36.5879 179.676 35.8906 178.343 35.8906H175.301V43H178.363ZM176.49 36.8545H178.165C178.91 36.8545 179.313 37.21 179.313 37.8525C179.313 38.543 178.883 38.8779 177.987 38.8779H176.49V36.8545ZM176.49 39.835H178.083C179.122 39.835 179.621 40.1904 179.621 40.9287C179.621 41.6465 179.156 42.0361 178.295 42.0361H176.49V39.835ZM182.697 45.6592C183.982 45.6592 184.57 45.1602 185.179 43.499L187.975 35.8906H186.724L184.755 41.8105H184.734L182.766 35.8906H181.494L184.119 43.0068L183.955 43.5059C183.682 44.333 183.312 44.6543 182.649 44.6543C182.499 44.6543 182.314 44.6475 182.185 44.6201V45.6182C182.314 45.6455 182.554 45.6592 182.697 45.6592ZM194.646 43.123C196.643 43.123 197.873 41.7285 197.873 39.4453C197.873 37.1553 196.643 35.7676 194.646 35.7676C192.842 35.7676 191.666 36.9092 191.454 38.8232H190.23V35.8906H189.041V43H190.23V39.8008H191.427C191.557 41.8721 192.76 43.123 194.646 43.123ZM194.646 42.0703C193.361 42.0703 192.637 41.1133 192.637 39.4453C192.637 37.7705 193.361 36.8203 194.646 36.8203C195.932 36.8203 196.656 37.7705 196.656 39.4453C196.656 41.1133 195.932 42.0703 194.646 42.0703ZM207.272 35.8906H201.503V36.8682H203.793V43H204.982V36.8682H207.272V35.8906ZM211.094 36.7998C212.215 36.7998 212.96 37.6475 212.987 38.8369H209.125C209.2 37.6543 209.979 36.7998 211.094 36.7998ZM212.96 40.9629C212.762 41.6328 212.099 42.0908 211.196 42.0908C209.918 42.0908 209.118 41.1953 209.118 39.835V39.7666H214.218V39.3154C214.218 37.1621 213.035 35.7676 211.114 35.7676C209.152 35.7676 207.895 37.2646 207.895 39.4727C207.895 41.708 209.132 43.123 211.169 43.123C212.721 43.123 213.924 42.207 214.129 40.9629H212.96ZM217.937 40.293L219.639 43H220.958L218.593 39.3975L220.992 35.8906H219.666L217.978 38.5566H217.95L216.241 35.8906H214.915L217.294 39.4453L214.874 43H216.193L217.909 40.293H217.937ZM226.796 43H227.985V35.8906H226.796V38.8232H223.316V35.8906H222.127V43H223.316V39.8008H226.796V43ZM230.836 43L234.377 37.7158H234.432V43H235.621V35.8906H234.445L230.904 41.1748H230.85V35.8906H229.66V43H230.836ZM239.716 39.2539L243.024 35.8906H241.555L238.533 39.0352H238.479V35.8906H237.289V43H238.479V39.582H238.533L241.589 43H243.12L239.716 39.2539ZM244.576 45.6592C245.861 45.6592 246.449 45.1602 247.058 43.499L249.854 35.8906H248.603L246.634 41.8105H246.613L244.645 35.8906H243.373L245.998 43.0068L245.834 43.5059C245.561 44.333 245.191 44.6543 244.528 44.6543C244.378 44.6543 244.193 44.6475 244.063 44.6201V45.6182C244.193 45.6455 244.433 45.6592 244.576 45.6592ZM251.337 33.1357L251.419 39.7256H252.485L252.567 33.1357H251.337ZM251.952 43.0684C252.396 43.0684 252.731 42.7266 252.731 42.2891C252.731 41.8447 252.396 41.5098 251.952 41.5098C251.515 41.5098 251.173 41.8447 251.173 42.2891C251.173 42.7266 251.515 43.0684 251.952 43.0684Z" fill="#E0E0E0"/>
</svg>
