<svg width="138" height="48" viewBox="0 0 138 48" fill="none" xmlns="http://www.w3.org/2000/svg">
<path opacity="0.7" fill-rule="evenodd" clip-rule="evenodd" d="M125.916 5.78052C125.916 4.09898 126.353 3.46052 127.196 3.46052C128.039 3.46052 129.194 3.70822 129.283 3.72724L129.288 3.7284V0.368726C129.288 0.368726 127.939 0 126.724 0C122.104 0 122.036 4.26788 122.036 7.02311V8.16517H120.181V11.2232H122.036V23.8917H125.916V11.2232H128.892H129.118H130.747V23.8917H134.626V11.2232H137.83V8.16517H134.626V5.78052C134.626 4.09898 135.065 3.46052 135.908 3.46052C136.75 3.46052 137.906 3.7082 137.995 3.72724L138 3.7284V0.368726C138 0.368726 136.649 0 135.436 0C130.814 0 130.747 4.26788 130.747 7.02311V8.16517H129.118H128.892H125.916V5.78052ZM20.3714 23.8917H16.5599L12.6145 7.93038L8.56667 23.8917H4.75543L0 0.940369H4.35086L7.25144 17.2039L11.5352 0.940369H15.1096L18.9543 17.1024L21.8217 0.940369H25.8344L20.3714 23.8917ZM37.6187 16.3984H29.0846C29.1855 19.8258 30.6703 21.1031 33.1998 21.1031C34.7855 21.1031 37.1471 19.6925 37.1471 19.6925V22.8852C37.1471 22.8852 34.8864 24.1281 32.088 24.1281C28.1081 24.1281 25.0371 21.641 25.0371 16.0962C25.0371 9.10526 29.456 7.76306 32.0535 7.76306C34.6163 7.76306 37.8202 8.93853 37.8202 13.6092C37.8199 15.2895 37.6187 16.3984 37.6187 16.3984ZM34.1437 13.6092C34.1437 11.8955 33.469 10.4837 31.9191 10.4837C30.9063 10.4837 29.1855 10.72 29.1855 14.0131H34.1437V13.6092ZM40.0914 4.16765C40.0914 5.34311 41.1375 6.35061 42.3521 6.35061C43.5664 6.35061 44.6124 5.34311 44.6124 4.16765C44.6124 2.99094 43.5664 1.98251 42.3521 1.98251C41.1375 1.98251 40.0914 2.99063 40.0914 4.16765ZM40.3622 23.8929H44.2399V8.16702H40.3622V23.8929ZM52.0256 24.1268C48.8888 24.1268 47.305 23.0846 47.305 23.0846V19.6912C47.305 19.6912 49.6647 21.1018 51.5869 21.1018C53.1397 21.1018 54.3192 20.5976 54.3192 19.2882C54.3192 18.1714 53.242 17.7254 52.0024 17.2122C51.6005 17.0458 51.1814 16.8723 50.7765 16.6666C48.922 15.7262 47.0674 14.7515 47.0674 12.1636C47.0674 9.84453 48.5522 7.76147 53.2732 7.76147C55.1954 7.76147 57.0847 8.19825 57.0847 8.19825V11.6934C57.0847 11.6934 54.8933 10.8189 53.5088 10.8189C52.2284 10.8189 51.0485 10.9538 51.0485 12.2979C51.0485 13.3653 52.2048 13.8312 53.3582 14.2958C53.5107 14.3572 53.6631 14.4187 53.8128 14.4814C53.9086 14.5212 54.0052 14.5609 54.1025 14.6008L54.1047 14.6017L54.1055 14.6021C56.0636 15.4065 58.2643 16.3106 58.2643 19.2876C58.2646 22.5813 55.6344 24.1268 52.0256 24.1268ZM60.2741 23.0846C60.2741 23.0846 61.8597 24.1268 64.9966 24.1268C68.6051 24.1268 71.2368 22.5813 71.2362 19.2876C71.2362 16.3117 69.0358 15.4072 67.0795 14.603C66.9805 14.5623 66.8821 14.5219 66.7847 14.4814C66.6343 14.4184 66.4811 14.3567 66.3278 14.2949C65.1746 13.8306 64.0176 13.3646 64.0176 12.2979C64.0176 10.9538 65.1987 10.8189 66.481 10.8189C67.8624 10.8189 70.0566 11.6934 70.0566 11.6934V8.19825C70.0566 8.19825 68.1676 7.76147 66.2451 7.76147C61.5228 7.76147 60.0378 9.84453 60.0378 12.1636C60.0378 14.7515 61.8939 15.7262 63.7487 16.6666C64.1536 16.8725 64.5727 17.0461 64.9747 17.2127C66.2131 17.7257 67.2899 18.1717 67.2899 19.2882C67.2899 20.5976 66.1103 21.1018 64.5576 21.1018C62.6353 21.1018 60.2741 19.6912 60.2741 19.6912V23.0846ZM84.8615 29.3486C83.7397 30.1928 82.6232 30.6531 80.57 30.7951L80.5078 30.7993L80.5077 30.7993C80.2433 30.8173 80.1293 30.8251 79.963 30.8251H79.9493C79.8583 30.8251 79.7498 30.8225 79.593 30.8188L79.5211 30.8171C77.4024 30.7617 75.7133 29.7554 75.1948 29.2549V26.2872C75.541 26.7527 77.6082 27.9038 79.5168 27.9038L79.7886 27.903L80.0605 27.9022C81.2844 27.9022 82.9309 27.0704 82.9309 24.1268V23.1165C82.0296 23.8394 81.1093 24.1268 79.2874 24.1268C75.4097 24.1268 73.3192 20.8015 73.3192 16.3316C73.3192 9.67812 76.692 7.7287 79.9291 7.7287C81.345 7.7287 82.5456 7.97864 83.6553 8.60288L83.8748 8.16517H86.8099V23.8586C86.8102 26.4808 86.1864 28.3504 84.8615 29.3486ZM82.9309 11.7609C82.6617 11.256 81.9538 10.4836 80.5032 10.4836C78.2773 10.4836 77.299 12.2985 77.299 15.9947C77.299 18.5158 77.9051 21.2707 80.1654 21.2707C81.8569 21.2707 82.5707 20.4897 82.9142 20.1138L82.9309 20.0956V11.7609ZM98.3665 22.492C98.6301 23.368 99.3437 24.025 100.525 24.025C102.413 24.025 103.293 23.6692 103.324 23.6566L103.325 23.6563V21.3372C102.009 21.3372 101.874 20.8339 101.874 19.4893V14.6166C101.874 11.3566 101.549 8.34707 97.9502 7.83574C96.9565 7.69488 96.0766 7.74292 95.6912 7.76396C95.6297 7.76732 95.5808 7.76999 95.5461 7.77109C93.4593 7.83574 92.4505 8.24716 91.1729 9.03874V11.9152C92.2506 11.2041 93.0094 10.7515 95.0602 10.7515C96.5449 10.7515 97.9955 11.0216 97.9955 13.2389V14.1124H96.6787C92.2599 14.1124 89.4959 15.3547 89.4959 19.3878C89.4959 23.0172 91.6873 24.3272 93.9812 24.3272C95.9034 24.3272 97.6422 23.5428 98.3665 22.492ZM96.5446 16.5995H97.9952V19.7244C97.9952 19.7244 97.4888 21.3375 95.3635 21.3375C94.048 21.3375 93.441 20.3972 93.441 19.1867C93.441 17.1702 94.9593 16.5995 96.5446 16.5995ZM114.573 23.8917L114.423 22.8743C112.837 24.0457 111.268 24.1599 110.021 24.1599C108.233 24.1599 105.534 23.3865 105.534 19.2211V8.16516H109.413V18.7261C109.413 20.5425 110.021 21.348 111.471 21.348C112.651 21.348 113.697 20.4751 114.034 19.7021V8.16516H117.913V23.8917H114.573ZM11.8535 44.9932H1.02539V35.1289H2.25586V43.8857H5.82422V35.1289H7.05469V43.8857H10.623V35.1289H11.8535V44.9932ZM19.9541 41.4453C19.9541 43.708 18.6279 45.123 16.666 45.123C14.6973 45.123 13.3711 43.708 13.3711 41.4453C13.3711 39.1758 14.6973 37.7676 16.666 37.7676C18.6279 37.7676 19.9541 39.1758 19.9541 41.4453ZM14.5811 41.4453C14.5811 43.1201 15.4082 44.0771 16.666 44.0771C17.9238 44.0771 18.7441 43.1201 18.7441 41.4453C18.7441 39.7705 17.9238 38.8135 16.666 38.8135C15.4082 38.8135 14.5811 39.7705 14.5811 41.4453ZM24.165 45.499C23.5566 47.1602 22.9688 47.6592 21.6836 47.6592C21.54 47.6592 21.3008 47.6455 21.1709 47.6182V46.6201C21.3008 46.6475 21.4854 46.6543 21.6357 46.6543C22.2988 46.6543 22.668 46.333 22.9414 45.5059L23.1055 45.0068L20.4805 37.8906H21.752L23.7207 43.8105H23.7412L25.71 37.8906H26.9609L24.165 45.499ZM32.4365 40.4473V41.5547H27.9521V40.4473H32.4365ZM35.1914 39.0938C35.6289 38.2939 36.4561 37.7676 37.4883 37.7676C39.2998 37.7676 40.5303 39.2168 40.5303 41.4453C40.5303 43.6738 39.3066 45.123 37.5156 45.123C36.4971 45.123 35.6768 44.624 35.2529 43.8447H35.2256V47.3721H34.0361V37.8906H35.1641V39.0938H35.1914ZM35.2188 41.4453C35.2188 43.0312 36.0391 44.0771 37.2559 44.0771C38.5205 44.0771 39.3135 43.0586 39.3135 41.4453C39.3135 39.8389 38.5205 38.8135 37.2559 38.8135C36.0391 38.8135 35.2188 39.8662 35.2188 41.4453ZM44.7412 45.499C44.1328 47.1602 43.5449 47.6592 42.2598 47.6592C42.1162 47.6592 41.877 47.6455 41.7471 47.6182V46.6201C41.877 46.6475 42.0615 46.6543 42.2119 46.6543C42.875 46.6543 43.2441 46.333 43.5176 45.5059L43.6816 45.0068L41.0566 37.8906H42.3281L44.2969 43.8105H44.3174L46.2861 37.8906H47.5371L44.7412 45.499ZM49.7793 39.9551V45H48.6035V37.8906H50.0459L52.5752 43.4277H52.6299L55.1729 37.8906H56.5605V45H55.3779V39.9551H55.3301L53.0332 44.7949H52.124L49.8271 39.9551H49.7793ZM66.6025 42.9561C66.6025 44.2139 65.6729 45 64.1621 45H61.0996V37.8906H64.1416C65.4746 37.8906 66.2881 38.5879 66.2881 39.7295C66.2881 40.4609 65.7754 41.1377 65.1191 41.2744V41.3291C66.0146 41.4521 66.6025 42.0879 66.6025 42.9561ZM63.9639 38.8545H62.2891V40.8779H63.7861C64.6816 40.8779 65.1123 40.543 65.1123 39.8525C65.1123 39.21 64.709 38.8545 63.9639 38.8545ZM63.8818 41.835H62.2891V44.0361H64.0938C64.9551 44.0361 65.4199 43.6465 65.4199 42.9287C65.4199 42.1904 64.9209 41.835 63.8818 41.835ZM80.7461 35.1357V45H79.5977V37.3984H79.5498L76.4053 45H75.3662L72.2217 37.3984H72.1738V45H71.0254V35.1357H72.4541L75.8584 43.4346H75.9131L79.3174 35.1357H80.7461ZM88.8467 41.4453C88.8467 43.708 87.5205 45.123 85.5586 45.123C83.5898 45.123 82.2637 43.708 82.2637 41.4453C82.2637 39.1758 83.5898 37.7676 85.5586 37.7676C87.5205 37.7676 88.8467 39.1758 88.8467 41.4453ZM83.4736 41.4453C83.4736 43.1201 84.3008 44.0771 85.5586 44.0771C86.8164 44.0771 87.6367 43.1201 87.6367 41.4453C87.6367 39.7705 86.8164 38.8135 85.5586 38.8135C84.3008 38.8135 83.4736 39.7705 83.4736 41.4453ZM93.1055 37.7676C94.8828 37.7676 95.9424 38.9434 96.0928 40.2217H94.9307C94.7598 39.4492 94.1582 38.8135 93.1123 38.8135C91.8818 38.8135 91.0479 39.832 91.0479 41.4453C91.0479 43.0996 91.8955 44.0771 93.126 44.0771C94.0967 44.0771 94.7324 43.5645 94.9375 42.71H96.1064C95.9219 44.125 94.7324 45.123 93.1191 45.123C91.1504 45.123 89.8379 43.7354 89.8379 41.4453C89.8379 39.2031 91.1436 37.7676 93.1055 37.7676ZM103.065 37.8906L99.7568 41.2539L103.161 45H101.63L98.5742 41.582H98.5195V45H97.3301V37.8906H98.5195V41.0352H98.5742L101.596 37.8906H103.065ZM109.655 42.9561C109.655 44.2139 108.726 45 107.215 45H104.152V37.8906H107.194C108.527 37.8906 109.341 38.5879 109.341 39.7295C109.341 40.4609 108.828 41.1377 108.172 41.2744V41.3291C109.067 41.4521 109.655 42.0879 109.655 42.9561ZM107.017 38.8545H105.342V40.8779H106.839C107.734 40.8779 108.165 40.543 108.165 39.8525C108.165 39.21 107.762 38.8545 107.017 38.8545ZM106.935 41.835H105.342V44.0361H107.146C108.008 44.0361 108.473 43.6465 108.473 42.9287C108.473 42.1904 107.974 41.835 106.935 41.835ZM115.767 40.8369C115.739 39.6475 114.994 38.7998 113.873 38.7998C112.759 38.7998 111.979 39.6543 111.904 40.8369H115.767ZM113.976 44.0908C114.878 44.0908 115.541 43.6328 115.739 42.9629H116.908C116.703 44.207 115.5 45.123 113.948 45.123C111.911 45.123 110.674 43.708 110.674 41.4727C110.674 39.2646 111.932 37.7676 113.894 37.7676C115.814 37.7676 116.997 39.1621 116.997 41.3154V41.7666H111.897V41.835C111.897 43.1953 112.697 44.0908 113.976 44.0908Z" fill="#E0E0E0"/>
</svg>
