<svg width="24" height="24" viewBox="0 0 24 24" fill="none" xmlns="http://www.w3.org/2000/svg">
<path d="M16.505 4.37981C15.3651 3.35981 13.765 2.7998 12.025 2.7998C10.285 2.7998 8.68504 3.35981 7.54504 4.37981C6.16504 5.61981 5.42504 7.47981 5.42504 9.77981C5.42504 14.7998 11.2051 20.6998 11.4651 20.9398C11.6251 21.0998 11.825 21.1798 12.025 21.1798C12.225 21.1798 12.4451 21.0998 12.5851 20.9398C12.8251 20.6998 18.625 14.7998 18.625 9.77981C18.605 7.47981 17.885 5.61981 16.505 4.37981ZM12.005 19.2198C11.465 18.6198 10.6051 17.6198 9.76506 16.4198C7.96506 13.8598 7.00505 11.5798 7.00505 9.7998C7.00505 4.7998 10.825 4.3998 12.005 4.3998C16.6451 4.3998 17.005 8.5398 17.005 9.7998C17.005 13.3198 13.425 17.6598 12.005 19.2198ZM12.005 6.2598C10.245 6.2598 8.82504 7.7198 8.82504 9.4998C8.82504 11.2798 10.245 12.7398 12.005 12.7398C13.765 12.7398 15.1851 11.2798 15.1851 9.4998C15.1851 7.6998 13.765 6.2598 12.005 6.2598ZM12.005 11.3198C11.025 11.3198 10.225 10.4998 10.225 9.47981C10.225 8.45981 11.025 7.63981 12.005 7.63981C12.985 7.63981 13.7851 8.45981 13.7851 9.47981C13.7851 10.4998 12.985 11.3198 12.005 11.3198Z" fill="#FFC000"/>
</svg>
