<svg width="24" height="24" viewBox="0 0 24 24" fill="none" xmlns="http://www.w3.org/2000/svg">
<path d="M3.49478 5.29989C3.51478 5.27989 3.51479 5.2799 3.53479 5.2599L5.67479 3.37987C5.97479 3.09987 6.39479 2.95989 6.83479 2.99989C7.23479 3.03989 7.59479 3.19987 7.87479 3.47987C7.89479 3.49987 7.91479 3.51988 7.93479 3.53988L10.0548 6.19989C10.6148 6.79989 10.5948 7.71989 10.0148 8.29989C9.97478 8.33989 9.93478 8.37989 9.89478 8.39989L8.81478 9.11991C8.89478 9.49991 9.45479 10.5799 11.4348 12.5599C13.4148 14.5399 14.4948 15.0999 14.8748 15.1799L15.5948 14.0999C15.6148 14.0599 15.6548 14.0199 15.6948 13.9799C16.2748 13.3999 17.1948 13.3999 17.7948 13.9399L20.4548 16.0599C20.4748 16.0799 20.4948 16.0999 20.5148 16.1199C21.1148 16.7199 21.1548 17.7199 20.6148 18.2999L18.7348 20.4399C18.7148 20.4599 18.7148 20.4599 18.6948 20.4799C18.3348 20.8399 17.7748 20.9799 17.1548 20.9799C16.0548 20.9799 14.7948 20.5399 14.1348 20.2799C12.8548 19.7799 10.3548 18.5599 7.87479 16.0799C6.03479 14.2399 4.55479 12.0199 3.67479 9.81991C3.29479 8.81991 2.45478 6.33989 3.49478 5.29989ZM9.01478 14.9799C12.7148 18.6799 16.8748 19.6999 17.5748 19.3399L19.3948 17.2599L16.7948 15.1999L16.0948 16.2599C16.0748 16.2799 16.0748 16.2999 16.0548 16.3199C15.8148 16.6199 15.4748 16.7799 15.0748 16.7999C14.6948 16.8199 13.5148 16.8799 10.3348 13.6999C9.55479 12.9199 7.15479 10.5199 7.23479 8.9599C7.25479 8.5599 7.43478 8.21987 7.71478 7.97987C7.73478 7.95987 7.75479 7.93988 7.77479 7.93988L8.83479 7.23988L6.77479 4.63988L4.69478 6.4599C4.29478 7.1199 5.31478 11.2799 9.01478 14.9799Z" fill="#FFC000"/>
</svg>
