<svg width="24" height="24" viewBox="0 0 24 24" fill="none" xmlns="http://www.w3.org/2000/svg">
<path d="M12.0049 2.7998C6.92493 2.7998 2.80493 6.91981 2.80493 11.9998C2.80493 17.0798 6.92493 21.1998 12.0049 21.1998C17.0849 21.1998 21.2049 17.0798 21.2049 11.9998C21.2049 6.91981 17.0849 2.7998 12.0049 2.7998ZM12.0049 19.5998C7.80493 19.5998 4.40493 16.1998 4.40493 11.9998C4.40493 7.79981 7.80493 4.3998 12.0049 4.3998C16.2049 4.3998 19.6049 7.79981 19.6049 11.9998C19.6049 16.1998 16.2049 19.5998 12.0049 19.5998ZM15.0649 13.9198C15.3849 14.2398 15.3849 14.7398 15.0649 15.0598C14.9049 15.2198 14.7049 15.2998 14.5049 15.2998C14.3049 15.2998 14.1049 15.2198 13.9449 15.0598L11.4649 12.5798C11.3049 12.4198 11.2249 12.2198 11.2249 12.0198V7.25981C11.2249 6.81981 11.5849 6.45981 12.0249 6.45981C12.4649 6.45981 12.8249 6.81981 12.8249 7.25981V11.6998L15.0649 13.9198Z" fill="#FFC000"/>
</svg>
